solid zone0
 facet normal 0 -1 0
  outer loop
   vertex 0 0 -0.01
   vertex 0.02 0 -0.01
   vertex 0.02 0 0.01
  endloop
 endfacet
 facet normal 0 -1 0
  outer loop
   vertex 0 0 -0.01
   vertex 0.02 0 0.01
   vertex 0 0 0.01
  endloop
 endfacet
 facet normal 0 -1 0
  outer loop
   vertex 0.02 0 -0.01
   vertex 0.04 0 -0.01
   vertex 0.04 0 0.01
  endloop
 endfacet
 facet normal 0 -1 0
  outer loop
   vertex 0.02 0 -0.01
   vertex 0.04 0 0.01
   vertex 0.02 0 0.01
  endloop
 endfacet
 facet normal 0 -1 0
  outer loop
   vertex 0.04 0 -0.01
   vertex 0.06 0 -0.01
   vertex 0.06 0 0.01
  endloop
 endfacet
 facet normal 0 -1 0
  outer loop
   vertex 0.04 0 -0.01
   vertex 0.06 0 0.01
   vertex 0.04 0 0.01
  endloop
 endfacet
 facet normal 0 -1 0
  outer loop
   vertex 0.06 0 -0.01
   vertex 0.08 0 -0.01
   vertex 0.08 0 0.01
  endloop
 endfacet
 facet normal 0 -1 0
  outer loop
   vertex 0.06 0 -0.01
   vertex 0.08 0 0.01
   vertex 0.06 0 0.01
  endloop
 endfacet
 facet normal 0 -1 0
  outer loop
   vertex 0.08 0 -0.01
   vertex 0.1 0 -0.01
   vertex 0.1 0 0.01
  endloop
 endfacet
 facet normal 0 -1 0
  outer loop
   vertex 0.08 0 -0.01
   vertex 0.1 0 0.01
   vertex 0.08 0 0.01
  endloop
 endfacet
 facet normal 0 -1 0
  outer loop
   vertex 0.1 0 -0.01
   vertex 0.12 0 -0.01
   vertex 0.12 0 0.01
  endloop
 endfacet
 facet normal 0 -1 0
  outer loop
   vertex 0.1 0 -0.01
   vertex 0.12 0 0.01
   vertex 0.1 0 0.01
  endloop
 endfacet
 facet normal 0 -1 0
  outer loop
   vertex 0.12 0 -0.01
   vertex 0.14 0 -0.01
   vertex 0.14 0 0.01
  endloop
 endfacet
 facet normal 0 -1 0
  outer loop
   vertex 0.12 0 -0.01
   vertex 0.14 0 0.01
   vertex 0.12 0 0.01
  endloop
 endfacet
 facet normal 0 -1 0
  outer loop
   vertex 0.14 0 -0.01
   vertex 0.16 0 -0.01
   vertex 0.16 0 0.01
  endloop
 endfacet
 facet normal 0 -1 0
  outer loop
   vertex 0.14 0 -0.01
   vertex 0.16 0 0.01
   vertex 0.14 0 0.01
  endloop
 endfacet
 facet normal 0 -1 0
  outer loop
   vertex 0.16 0 -0.01
   vertex 0.18 0 -0.01
   vertex 0.18 0 0.01
  endloop
 endfacet
 facet normal 0 -1 0
  outer loop
   vertex 0.16 0 -0.01
   vertex 0.18 0 0.01
   vertex 0.16 0 0.01
  endloop
 endfacet
 facet normal 0 -1 0
  outer loop
   vertex 0.18 0 -0.01
   vertex 0.2 0 -0.01
   vertex 0.2 0 0.01
  endloop
 endfacet
 facet normal 0 -1 0
  outer loop
   vertex 0.18 0 -0.01
   vertex 0.2 0 0.01
   vertex 0.18 0 0.01
  endloop
 endfacet
 facet normal 0 -1 0
  outer loop
   vertex 0.2 0 -0.01
   vertex 0.22 0 -0.01
   vertex 0.22 0 0.01
  endloop
 endfacet
 facet normal 0 -1 0
  outer loop
   vertex 0.2 0 -0.01
   vertex 0.22 0 0.01
   vertex 0.2 0 0.01
  endloop
 endfacet
 facet normal 0 -1 0
  outer loop
   vertex 0.22 0 -0.01
   vertex 0.24 0 -0.01
   vertex 0.24 0 0.01
  endloop
 endfacet
 facet normal 0 -1 0
  outer loop
   vertex 0.22 0 -0.01
   vertex 0.24 0 0.01
   vertex 0.22 0 0.01
  endloop
 endfacet
 facet normal 0 -1 0
  outer loop
   vertex 0.24 0 -0.01
   vertex 0.26 0 -0.01
   vertex 0.26 0 0.01
  endloop
 endfacet
 facet normal 0 -1 0
  outer loop
   vertex 0.24 0 -0.01
   vertex 0.26 0 0.01
   vertex 0.24 0 0.01
  endloop
 endfacet
 facet normal 0 -1 0
  outer loop
   vertex 0.26 0 -0.01
   vertex 0.28 0 -0.01
   vertex 0.28 0 0.01
  endloop
 endfacet
 facet normal 0 -1 0
  outer loop
   vertex 0.26 0 -0.01
   vertex 0.28 0 0.01
   vertex 0.26 0 0.01
  endloop
 endfacet
 facet normal 0 -1 0
  outer loop
   vertex 0.28 0 -0.01
   vertex 0.3 0 -0.01
   vertex 0.3 0 0.01
  endloop
 endfacet
 facet normal 0 -1 0
  outer loop
   vertex 0.28 0 -0.01
   vertex 0.3 0 0.01
   vertex 0.28 0 0.01
  endloop
 endfacet
 facet normal 0 -1 0
  outer loop
   vertex 0.3 0 -0.01
   vertex 0.32 0 -0.01
   vertex 0.32 0 0.01
  endloop
 endfacet
 facet normal 0 -1 0
  outer loop
   vertex 0.3 0 -0.01
   vertex 0.32 0 0.01
   vertex 0.3 0 0.01
  endloop
 endfacet
 facet normal 0 -1 0
  outer loop
   vertex 0.32 0 -0.01
   vertex 0.34 0 -0.01
   vertex 0.34 0 0.01
  endloop
 endfacet
 facet normal 0 -1 0
  outer loop
   vertex 0.32 0 -0.01
   vertex 0.34 0 0.01
   vertex 0.32 0 0.01
  endloop
 endfacet
 facet normal 0 -1 0
  outer loop
   vertex 0.34 0 -0.01
   vertex 0.36 0 -0.01
   vertex 0.36 0 0.01
  endloop
 endfacet
 facet normal 0 -1 0
  outer loop
   vertex 0.34 0 -0.01
   vertex 0.36 0 0.01
   vertex 0.34 0 0.01
  endloop
 endfacet
 facet normal 0 -1 0
  outer loop
   vertex 0.36 0 -0.01
   vertex 0.38 0 -0.01
   vertex 0.38 0 0.01
  endloop
 endfacet
 facet normal 0 -1 0
  outer loop
   vertex 0.36 0 -0.01
   vertex 0.38 0 0.01
   vertex 0.36 0 0.01
  endloop
 endfacet
 facet normal 0 -1 0
  outer loop
   vertex 0.38 0 -0.01
   vertex 0.4 0 -0.01
   vertex 0.4 0 0.01
  endloop
 endfacet
 facet normal 0 -1 0
  outer loop
   vertex 0.38 0 -0.01
   vertex 0.4 0 0.01
   vertex 0.38 0 0.01
  endloop
 endfacet
 facet normal 0 -1 0
  outer loop
   vertex 0.4 0 -0.01
   vertex 0.42 0 -0.01
   vertex 0.42 0 0.01
  endloop
 endfacet
 facet normal 0 -1 0
  outer loop
   vertex 0.4 0 -0.01
   vertex 0.42 0 0.01
   vertex 0.4 0 0.01
  endloop
 endfacet
 facet normal 0 -1 0
  outer loop
   vertex 0.42 0 -0.01
   vertex 0.44 0 -0.01
   vertex 0.44 0 0.01
  endloop
 endfacet
 facet normal 0 -1 0
  outer loop
   vertex 0.42 0 -0.01
   vertex 0.44 0 0.01
   vertex 0.42 0 0.01
  endloop
 endfacet
 facet normal 0 -1 0
  outer loop
   vertex 0.44 0 -0.01
   vertex 0.46 0 -0.01
   vertex 0.46 0 0.01
  endloop
 endfacet
 facet normal 0 -1 0
  outer loop
   vertex 0.44 0 -0.01
   vertex 0.46 0 0.01
   vertex 0.44 0 0.01
  endloop
 endfacet
 facet normal 0 -1 0
  outer loop
   vertex 0.46 0 -0.01
   vertex 0.48 0 -0.01
   vertex 0.48 0 0.01
  endloop
 endfacet
 facet normal 0 -1 0
  outer loop
   vertex 0.46 0 -0.01
   vertex 0.48 0 0.01
   vertex 0.46 0 0.01
  endloop
 endfacet
 facet normal 0 -1 0
  outer loop
   vertex 0.48 0 -0.01
   vertex 0.5 0 -0.01
   vertex 0.5 0 0.01
  endloop
 endfacet
 facet normal 0 -1 0
  outer loop
   vertex 0.48 0 -0.01
   vertex 0.5 0 0.01
   vertex 0.48 0 0.01
  endloop
 endfacet
 facet normal 0 -1 0
  outer loop
   vertex 0.5 0 -0.01
   vertex 0.52 0 -0.01
   vertex 0.52 0 0.01
  endloop
 endfacet
 facet normal 0 -1 0
  outer loop
   vertex 0.5 0 -0.01
   vertex 0.52 0 0.01
   vertex 0.5 0 0.01
  endloop
 endfacet
 facet normal 0 -1 0
  outer loop
   vertex 0.52 0 -0.01
   vertex 0.54 0 -0.01
   vertex 0.54 0 0.01
  endloop
 endfacet
 facet normal 0 -1 0
  outer loop
   vertex 0.52 0 -0.01
   vertex 0.54 0 0.01
   vertex 0.52 0 0.01
  endloop
 endfacet
 facet normal 0 -1 0
  outer loop
   vertex 0.54 0 -0.01
   vertex 0.56 0 -0.01
   vertex 0.56 0 0.01
  endloop
 endfacet
 facet normal 0 -1 0
  outer loop
   vertex 0.54 0 -0.01
   vertex 0.56 0 0.01
   vertex 0.54 0 0.01
  endloop
 endfacet
 facet normal 0 -1 0
  outer loop
   vertex 0.56 0 -0.01
   vertex 0.58 0 -0.01
   vertex 0.58 0 0.01
  endloop
 endfacet
 facet normal 0 -1 0
  outer loop
   vertex 0.56 0 -0.01
   vertex 0.58 0 0.01
   vertex 0.56 0 0.01
  endloop
 endfacet
 facet normal 0 -1 0
  outer loop
   vertex 0.58 0 -0.01
   vertex 0.6 0 -0.01
   vertex 0.6 0 0.01
  endloop
 endfacet
 facet normal 0 -1 0
  outer loop
   vertex 0.58 0 -0.01
   vertex 0.6 0 0.01
   vertex 0.58 0 0.01
  endloop
 endfacet
 facet normal 0 -1 0
  outer loop
   vertex 0.6 0 -0.01
   vertex 0.62 0 -0.01
   vertex 0.62 0 0.01
  endloop
 endfacet
 facet normal 0 -1 0
  outer loop
   vertex 0.6 0 -0.01
   vertex 0.62 0 0.01
   vertex 0.6 0 0.01
  endloop
 endfacet
 facet normal 0 -1 0
  outer loop
   vertex 0.62 0 -0.01
   vertex 0.64 0 -0.01
   vertex 0.64 0 0.01
  endloop
 endfacet
 facet normal 0 -1 0
  outer loop
   vertex 0.62 0 -0.01
   vertex 0.64 0 0.01
   vertex 0.62 0 0.01
  endloop
 endfacet
 facet normal 0 -1 0
  outer loop
   vertex 0.64 0 -0.01
   vertex 0.66 0 -0.01
   vertex 0.66 0 0.01
  endloop
 endfacet
 facet normal 0 -1 0
  outer loop
   vertex 0.64 0 -0.01
   vertex 0.66 0 0.01
   vertex 0.64 0 0.01
  endloop
 endfacet
 facet normal 0 -1 0
  outer loop
   vertex 0.66 0 -0.01
   vertex 0.68 0 -0.01
   vertex 0.68 0 0.01
  endloop
 endfacet
 facet normal 0 -1 0
  outer loop
   vertex 0.66 0 -0.01
   vertex 0.68 0 0.01
   vertex 0.66 0 0.01
  endloop
 endfacet
 facet normal 0 -1 0
  outer loop
   vertex 0.68 0 -0.01
   vertex 0.7 0 -0.01
   vertex 0.7 0 0.01
  endloop
 endfacet
 facet normal 0 -1 0
  outer loop
   vertex 0.68 0 -0.01
   vertex 0.7 0 0.01
   vertex 0.68 0 0.01
  endloop
 endfacet
 facet normal 0 -1 0
  outer loop
   vertex 0.7 0 -0.01
   vertex 0.72 0 -0.01
   vertex 0.72 0 0.01
  endloop
 endfacet
 facet normal 0 -1 0
  outer loop
   vertex 0.7 0 -0.01
   vertex 0.72 0 0.01
   vertex 0.7 0 0.01
  endloop
 endfacet
 facet normal 0 -1 0
  outer loop
   vertex 0.72 0 -0.01
   vertex 0.74 0 -0.01
   vertex 0.74 0 0.01
  endloop
 endfacet
 facet normal 0 -1 0
  outer loop
   vertex 0.72 0 -0.01
   vertex 0.74 0 0.01
   vertex 0.72 0 0.01
  endloop
 endfacet
 facet normal 0 -1 0
  outer loop
   vertex 0.74 0 -0.01
   vertex 0.76 0 -0.01
   vertex 0.76 0 0.01
  endloop
 endfacet
 facet normal 0 -1 0
  outer loop
   vertex 0.74 0 -0.01
   vertex 0.76 0 0.01
   vertex 0.74 0 0.01
  endloop
 endfacet
 facet normal 0 -1 0
  outer loop
   vertex 0.76 0 -0.01
   vertex 0.78 0 -0.01
   vertex 0.78 0 0.01
  endloop
 endfacet
 facet normal 0 -1 0
  outer loop
   vertex 0.76 0 -0.01
   vertex 0.78 0 0.01
   vertex 0.76 0 0.01
  endloop
 endfacet
 facet normal 0 -1 0
  outer loop
   vertex 0.78 0 -0.01
   vertex 0.8 0 -0.01
   vertex 0.8 0 0.01
  endloop
 endfacet
 facet normal 0 -1 0
  outer loop
   vertex 0.78 0 -0.01
   vertex 0.8 0 0.01
   vertex 0.78 0 0.01
  endloop
 endfacet
 facet normal 0 -1 0
  outer loop
   vertex 0.8 0 -0.01
   vertex 0.82 0 -0.01
   vertex 0.82 0 0.01
  endloop
 endfacet
 facet normal 0 -1 0
  outer loop
   vertex 0.8 0 -0.01
   vertex 0.82 0 0.01
   vertex 0.8 0 0.01
  endloop
 endfacet
 facet normal 0 -1 0
  outer loop
   vertex 0.82 0 -0.01
   vertex 0.84 0 -0.01
   vertex 0.84 0 0.01
  endloop
 endfacet
 facet normal 0 -1 0
  outer loop
   vertex 0.82 0 -0.01
   vertex 0.84 0 0.01
   vertex 0.82 0 0.01
  endloop
 endfacet
 facet normal 0 -1 0
  outer loop
   vertex 0.84 0 -0.01
   vertex 0.86 0 -0.01
   vertex 0.86 0 0.01
  endloop
 endfacet
 facet normal 0 -1 0
  outer loop
   vertex 0.84 0 -0.01
   vertex 0.86 0 0.01
   vertex 0.84 0 0.01
  endloop
 endfacet
 facet normal 0 -1 0
  outer loop
   vertex 0.86 0 -0.01
   vertex 0.88 0 -0.01
   vertex 0.88 0 0.01
  endloop
 endfacet
 facet normal 0 -1 0
  outer loop
   vertex 0.86 0 -0.01
   vertex 0.88 0 0.01
   vertex 0.86 0 0.01
  endloop
 endfacet
 facet normal 0 -1 0
  outer loop
   vertex 0.88 0 -0.01
   vertex 0.9 0 -0.01
   vertex 0.9 0 0.01
  endloop
 endfacet
 facet normal 0 -1 0
  outer loop
   vertex 0.88 0 -0.01
   vertex 0.9 0 0.01
   vertex 0.88 0 0.01
  endloop
 endfacet
 facet normal 0 -1 0
  outer loop
   vertex 0.9 0 -0.01
   vertex 0.92 0 -0.01
   vertex 0.92 0 0.01
  endloop
 endfacet
 facet normal 0 -1 0
  outer loop
   vertex 0.9 0 -0.01
   vertex 0.92 0 0.01
   vertex 0.9 0 0.01
  endloop
 endfacet
 facet normal 0 -1 0
  outer loop
   vertex 0.92 0 -0.01
   vertex 0.94 0 -0.01
   vertex 0.94 0 0.01
  endloop
 endfacet
 facet normal 0 -1 0
  outer loop
   vertex 0.92 0 -0.01
   vertex 0.94 0 0.01
   vertex 0.92 0 0.01
  endloop
 endfacet
 facet normal 0 -1 0
  outer loop
   vertex 0.94 0 -0.01
   vertex 0.96 0 -0.01
   vertex 0.96 0 0.01
  endloop
 endfacet
 facet normal 0 -1 0
  outer loop
   vertex 0.94 0 -0.01
   vertex 0.96 0 0.01
   vertex 0.94 0 0.01
  endloop
 endfacet
 facet normal 0 -1 0
  outer loop
   vertex 0.96 0 -0.01
   vertex 0.98 0 -0.01
   vertex 0.98 0 0.01
  endloop
 endfacet
 facet normal 0 -1 0
  outer loop
   vertex 0.96 0 -0.01
   vertex 0.98 0 0.01
   vertex 0.96 0 0.01
  endloop
 endfacet
 facet normal 0 -1 0
  outer loop
   vertex 0.98 0 -0.01
   vertex 1 0 -0.01
   vertex 1 0 0.01
  endloop
 endfacet
 facet normal 0 -1 0
  outer loop
   vertex 0.98 0 -0.01
   vertex 1 0 0.01
   vertex 0.98 0 0.01
  endloop
 endfacet
endsolid zone0
